<?xml version="1.0" encoding="UTF-8" standalone="no"?>
<!-- Uploaded to: SVG Repo, www.svgrepo.com, Generator: SVG Repo Mixer Tools -->

<svg
   fill="#000000"
   width="800px"
   height="800px"
   viewBox="0 0 32 32"
   id="icon"
   version="1.1"
   sodipodi:docname="automatic_refresh_icon.svg"
   inkscape:version="1.3.2 (091e20e, 2023-11-25, custom)"
   xmlns:inkscape="http://www.inkscape.org/namespaces/inkscape"
   xmlns:sodipodi="http://sodipodi.sourceforge.net/DTD/sodipodi-0.dtd"
   xmlns="http://www.w3.org/2000/svg"
   xmlns:svg="http://www.w3.org/2000/svg">
  <sodipodi:namedview
     id="namedview3"
     pagecolor="#505050"
     bordercolor="#eeeeee"
     borderopacity="1"
     inkscape:showpageshadow="0"
     inkscape:pageopacity="0"
     inkscape:pagecheckerboard="0"
     inkscape:deskcolor="#d1d1d1"
     inkscape:zoom="1.09125"
     inkscape:cx="400"
     inkscape:cy="400"
     inkscape:current-layer="icon" />
  <defs
     id="defs1">
    <style
       id="style1">
      .cls-1 {
        fill: none;
      }
    </style>
  </defs>
  <path
     d="M26,16H22a2.002,2.002,0,0,0-2,2V30h2V25h4v5h2V18A2.002,2.002,0,0,0,26,16Zm-4,7V18h4v5Z"
     id="path1"
     style="fill:#e0e0e0" />
  <path
     d="M16,27a10.9862,10.9862,0,0,1-9.2156-5H12V20H4v8H6V24.3149A13.0239,13.0239,0,0,0,16,29Z"
     id="path2"
     style="fill:#e0e0e0" />
  <path
     d="M20,10h5.2155A10.9973,10.9973,0,0,0,5,16H3A13.0048,13.0048,0,0,1,26,7.6849V4h2v8H20Z"
     id="path3"
     style="fill:#e0e0e0" />
  <rect
     id="_Transparent_Rectangle_"
     data-name="&lt;Transparent Rectangle&gt;"
     class="cls-1"
     width="32"
     height="32" />
</svg>
