<?xml version="1.0" encoding="UTF-8" standalone="no"?>
<!-- Created with Inkscape (http://www.inkscape.org/) -->

<svg
   version="1.1"
   id="svg1"
   width="140"
   height="140"
   viewBox="0 0 140.00002 140.00001"
   sodipodi:docname="collapse_normal.svg"
   inkscape:version="1.3.2 (091e20ef0f, 2023-11-25, custom)"
   xmlns:inkscape="http://www.inkscape.org/namespaces/inkscape"
   xmlns:sodipodi="http://sodipodi.sourceforge.net/DTD/sodipodi-0.dtd"
   xmlns="http://www.w3.org/2000/svg"
   xmlns:svg="http://www.w3.org/2000/svg">
  <defs
     id="defs1" />
  <sodipodi:namedview
     id="namedview1"
     pagecolor="#ffffff"
     bordercolor="#000000"
     borderopacity="0.25"
     inkscape:showpageshadow="2"
     inkscape:pageopacity="0.0"
     inkscape:pagecheckerboard="0"
     inkscape:deskcolor="#d1d1d1"
     inkscape:zoom="6.3267974"
     inkscape:cx="76.341942"
     inkscape:cy="76.5"
     inkscape:window-width="1920"
     inkscape:window-height="1172"
     inkscape:window-x="1920"
     inkscape:window-y="0"
     inkscape:window-maximized="1"
     inkscape:current-layer="g1" />
  <g
     inkscape:groupmode="layer"
     inkscape:label="root"
     id="g1">
    <path
       style="fill:#000000;stroke-width:0.870764"
       d="m 35.524658,126.84844 -5.8379,-5.8939 19.830288,-20.90206 C 60.423706,88.556328 69.735224,79.150398 70.20931,79.150398 c 0.474086,0 9.785604,9.40593 20.692259,20.902082 l 19.830291,20.90206 -5.83789,5.89094 -5.837906,5.89093 -14.429335,-15.17209 -14.429333,-15.17209 -14.417419,15.17505 -14.41742,15.17506 z M 49.517046,39.481 29.686758,18.578932 35.524658,12.687995 41.362557,6.7970597 55.79189,21.969155 70.221223,37.141253 84.638643,21.966194 99.056064,6.7911347 104.89397,12.685033 110.73186,18.578932 90.901569,39.481 C 79.994914,50.977137 70.683396,60.383068 70.20931,60.383068 c -0.474086,0 -9.785604,-9.405931 -20.692264,-20.902068 z"
       id="path1" />
  </g>
</svg>
