<?xml version="1.0" encoding="UTF-8" standalone="no"?>
<!-- Uploaded to: SVG Repo, www.svgrepo.com, Generator: SVG Repo Mixer Tools -->

<svg
   fill="#000000"
   width="800px"
   height="800px"
   viewBox="0 0 1024 1024"
   class="icon"
   version="1.1"
   id="svg1"
   sodipodi:docname="connect_icon.svg"
   inkscape:version="1.3.2 (091e20e, 2023-11-25, custom)"
   xmlns:inkscape="http://www.inkscape.org/namespaces/inkscape"
   xmlns:sodipodi="http://sodipodi.sourceforge.net/DTD/sodipodi-0.dtd"
   xmlns="http://www.w3.org/2000/svg"
   xmlns:svg="http://www.w3.org/2000/svg">
  <defs
     id="defs1" />
  <sodipodi:namedview
     id="namedview1"
     pagecolor="#505050"
     bordercolor="#eeeeee"
     borderopacity="1"
     inkscape:showpageshadow="0"
     inkscape:pageopacity="0"
     inkscape:pagecheckerboard="0"
     inkscape:deskcolor="#d1d1d1"
     inkscape:zoom="0.15048116"
     inkscape:cx="-275.78203"
     inkscape:cy="601.40418"
     inkscape:current-layer="svg1" />
  <path
     d="m 868.20717,154.42237 c -116.26733,-116.26733 -304.41151,-116.26733 -420.5414,0 L 334.97432,267.11381 405.06455,337.20405 517.756,224.51261 c 73.93832,-73.93832 198.72642,-81.77194 280.36094,0 81.77194,81.77194 73.93832,206.42261 0,280.36094 L 685.42549,617.56499 755.65315,687.79265 868.3446,575.10121 C 984.33702,458.83388 984.33702,270.68971 868.20717,154.42237 Z M 506.46735,799.67636 c -73.93832,73.93832 -198.72643,81.77194 -280.36094,0 -81.77194,-81.77195 -73.93832,-206.42262 0,-280.36094 L 338.79786,406.62397 268.57019,336.3963 155.87875,449.08775 c -116.267329,116.26734 -116.267336,304.41151 0,420.54141 116.26733,116.12989 304.4115,116.26733 420.5414,0 L 689.11159,756.93771 619.02137,686.84748 Z"
     id="path1"
     style="fill:#e0e0e0;stroke-width:1.37432"
     sodipodi:nodetypes="ccccscsccccccsccsscccc" />
</svg>
