<?xml version="1.0" encoding="UTF-8" standalone="no"?>
<svg
   width="800px"
   height="800px"
   viewBox="0 0 24 24"
   version="1.1"
   id="svg1"
   sodipodi:docname="grouping_icon.svg"
   inkscape:version="1.3.2 (091e20e, 2023-11-25, custom)"
   xmlns:inkscape="http://www.inkscape.org/namespaces/inkscape"
   xmlns:sodipodi="http://sodipodi.sourceforge.net/DTD/sodipodi-0.dtd"
   xmlns="http://www.w3.org/2000/svg"
   xmlns:svg="http://www.w3.org/2000/svg">
  <defs
     id="defs1" />
  <sodipodi:namedview
     id="namedview1"
     pagecolor="#505050"
     bordercolor="#eeeeee"
     borderopacity="1"
     inkscape:showpageshadow="0"
     inkscape:pageopacity="0"
     inkscape:pagecheckerboard="0"
     inkscape:deskcolor="#d1d1d1"
     inkscape:zoom="0.556875"
     inkscape:cx="343.88328"
     inkscape:cy="300.78563"
     inkscape:current-layer="ic_fluent_group_list_24_regular" />
  <!-- Uploaded to: SVG Repo, www.svgrepo.com, Generator: SVG Repo Mixer Tools -->
  <title
     id="title1">ic_fluent_group_list_24_regular</title>
  <desc
     id="desc1">Created with Sketch.</desc>
  <g
     id="ðŸ”-Product-Icons"
     stroke="none"
     stroke-width="1"
     fill="none"
     fill-rule="evenodd">
    <g
       id="ic_fluent_group_list_24_regular"
       fill="#212121"
       fill-rule="nonzero">
      <path
         d="m 2.7531058,1.9600073 2.4993379,0.011018 C 5.6665436,1.9728553 6.0007584,2.3101138 5.998948,2.7243233 5.997258,3.1040154 5.7138015,3.416564 5.3476076,3.4646126 L 5.2458348,3.4710106 3.4996027,3.463 v 5.492 l 1.7495366,5.93e-5 c 0.3795952,0 0.6933073,0.2821539 0.7429565,0.6482297 l 0.00685,0.10177 c 0,0.379696 -0.2820865,0.693491 -0.6480651,0.743154 l -0.1017436,0.0068 H 2.7498014 c -0.3795952,0 -0.6933073,-0.282154 -0.7429566,-0.648229 L 2,9.705059 V 2.71 C 2,2.3291205 2.2837743,2.0147792 2.6510268,1.9664444 Z M 21.244902,7.4643144 c 0.414104,0 0.749801,0.3357864 0.749801,0.75 0,0.3796957 -0.282079,0.6934909 -0.648058,0.7431534 l -0.101743,0.00685 H 7.7484772 c -0.4141039,0 -0.7498014,-0.3357865 -0.7498014,-0.75 0,-0.3796958 0.2820792,-0.693491 0.6480578,-0.7431534 l 0.1017436,-0.00685 z m 0.0053,-4 c 0.414104,0 0.749801,0.3357864 0.749801,0.75 0,0.3796957 -0.282079,0.6934909 -0.648058,0.7431533 l -0.101743,0.00685 H 7.7537739 c -0.4141038,0 -0.7498013,-0.3357865 -0.7498013,-0.75 0,-0.3796958 0.2820791,-0.693491 0.6480578,-0.7431534 l 0.1017435,-0.00685 z"
         id="ðŸŽ¨-Color"
         style="fill:#e0e0e0"
         sodipodi:nodetypes="csccccccccccsccsccssccssccsssccssccs" />
      <path
         d="m 2.7531058,13.195961 2.4993379,0.01102 c 0.4140999,0.0018 0.7483147,0.339088 0.7465043,0.753298 -0.00169,0.379692 -0.2851465,0.69224 -0.6513404,0.740289 l -0.1017728,0.0064 -1.7462321,-0.009 v 5.501 l 1.7495366,10e-4 c 0.3795952,0 0.6933073,0.282154 0.7429565,0.648229 L 5.998948,20.95 c 0,0.379696 -0.2820865,0.693491 -0.6480651,0.743153 L 5.2491393,21.7 H 2.7498014 C 2.3702062,21.7 2.0564941,21.417846 2.0068448,21.051771 L 2,20.95 v -7.004047 c 0,-0.380879 0.2837743,-0.69522 0.6510268,-0.743555 z M 21.244902,18.7 c 0.414104,0 0.749801,0.335786 0.749801,0.75 0,0.379696 -0.282079,0.693491 -0.648058,0.743153 L 21.244902,20.2 H 7.7484772 c -0.4141039,0 -0.7498014,-0.335786 -0.7498014,-0.75 0,-0.379696 0.2820792,-0.693491 0.6480578,-0.743153 L 7.7484772,18.7 Z m 0,-4 c 0.414104,0 0.749801,0.335786 0.749801,0.75 0,0.379696 -0.282079,0.693491 -0.648058,0.743153 L 21.244902,16.2 H 7.7484772 c -0.4141039,0 -0.7498014,-0.335786 -0.7498014,-0.75 0,-0.379696 0.2820792,-0.693491 0.6480578,-0.743153 L 7.7484772,14.7 Z"
         style="fill:#e0e0e0"
         id="path1" />
    </g>
  </g>
</svg>
