<?xml version="1.0" encoding="UTF-8" standalone="no"?>
<svg
   xml:space="preserve"
   width="16"
   height="16"
   version="1.0"
   viewBox="0 0 2.4 2.4"
   id="svg2"
   sodipodi:docname="hbaker.svg"
   inkscape:version="1.4 (e7c3feb100, 2024-10-09)"
   xmlns:inkscape="http://www.inkscape.org/namespaces/inkscape"
   xmlns:sodipodi="http://sodipodi.sourceforge.net/DTD/sodipodi-0.dtd"
   xmlns="http://www.w3.org/2000/svg"
   xmlns:svg="http://www.w3.org/2000/svg"><defs
     id="defs2" /><sodipodi:namedview
     id="namedview2"
     pagecolor="#ffffff"
     bordercolor="#000000"
     borderopacity="0.25"
     inkscape:showpageshadow="2"
     inkscape:pageopacity="0.0"
     inkscape:pagecheckerboard="0"
     inkscape:deskcolor="#d1d1d1"
     inkscape:zoom="37.1673"
     inkscape:cx="5.6097699"
     inkscape:cy="4.2375959"
     inkscape:window-width="1920"
     inkscape:window-height="1092"
     inkscape:window-x="1920"
     inkscape:window-y="0"
     inkscape:window-maximized="1"
     inkscape:current-layer="g1" /><path
     style="fill:#ff2a2a;fill-opacity:1;stroke-width:0.0435029"
     d="M 0.99436903,2.378702 C 0.49012881,2.3584692 0.18569755,2.2476444 0.07071891,2.0424587 0.0059236,1.9268278 0.00263906,1.7685164 0.06180747,1.6129585 0.15270707,1.3739797 0.38496514,1.1547497 0.67456285,1.0345745 c 0.0901181,-0.0373952 0.0863367,-0.0432434 0.0416578,0.064425 -0.0214734,0.051743 -0.0520952,0.1357529 -0.0680518,0.1866857 -0.0673274,0.2149153 -0.0655486,0.2014346 -0.0155037,0.1175363 0.0862956,-0.1446723 0.2157491,-0.3075746 0.32535952,-0.40942732 0.050082,-0.0465377 0.0557087,-0.0498632 0.0926536,-0.0547675 0.044014,-0.005837 0.2156748,-0.007849 0.2156748,-0.002524 0,0.00189 -0.00942,0.0209835 -0.020949,0.0424506 C 1.2185651,1.0289523 1.1719481,1.140102 1.143545,1.2218256 1.114498,1.3053968 1.066859,1.4657723 1.07379,1.4566548 1.07677,1.452739 1.09818,1.4187043 1.121368,1.3810245 1.210956,1.2354619 1.32698,1.0906694 1.4290434,0.99706209 c 0.038012,-0.0348624 0.041509,-0.0365613 0.065755,-0.0319706 0.031124,0.005893 0.1071999,0.0280214 0.160609,0.0467179 l 0.039359,0.013778 -0.032938,0.080188 c -0.030176,0.073468 -0.1228438,0.354025 -0.118603,0.3590787 9.989e-4,0.00119 0.015496,-0.021285 0.032218,-0.049945 0.050557,-0.08666 0.1229866,-0.189392 0.1856922,-0.2633766 l 0.05937,-0.070048 0.075546,0.046222 C 2.0999041,1.2524312 2.2438569,1.4106892 2.318378,1.5919999 2.415593,1.8285248 2.376241,2.0356734 2.2088816,2.1683742 2.044513,2.2987048 1.7926591,2.3618934 1.3683798,2.3792525 1.1902881,2.3865312 1.1894526,2.3865312 0.99436744,2.378702 Z"
     id="path2"
     sodipodi:nodetypes="ssssssssssssssssscsssscssssss" /><g
     id="g1"
     transform="matrix(1.1286777,0,0,1.2512658,-0.2151431,-0.03780897)"
     style="fill:#e6e6e6"><path
       d="M 1.8156803,0.93776699 C 1.5624655,0.85937638 1.4405303,0.67389071 1.5346987,0.51033207 c 0.01228,-0.0213391 0.066934,-0.0778606 0.12144,-0.125605 0.113792,-0.0996762 0.137734,-0.14417837 0.115418,-0.21455305 -0.00738,-0.0234004 -0.02589,-0.0579816 -0.041042,-0.07684966 C 1.7153747,0.074456 1.7029667,0.05835791 1.7029667,0.0575481 c 0,-0.0063242 0.2189818,0.07056017 0.2492112,0.0875011 0.080596,0.0451664 0.112754,0.11766433 0.089894,0.20265399 -0.01948,0.0724124 -0.064138,0.12395888 -0.181938,0.20998768 -0.08107,0.0592039 -0.10506,0.0833482 -0.123982,0.12477299 -0.042556,0.093181 0.00172,0.18100727 0.124354,0.24678736 0.075772,0.0406358 0.065354,0.0426132 -0.044826,0.008516 z"
       style="fill:#e6e6e6;fill-opacity:1;stroke-width:0.0699285"
       id="path1"
       sodipodi:nodetypes="ccsccscccccc" /><path
       d="M 1.3327212,0.90564249 C 1.1652154,0.84100767 1.0736582,0.70833885 1.1023678,0.57184986 c 0.013829,-0.0657941 0.040981,-0.11165791 0.1025877,-0.17335983 0.080376,-0.0804947 0.09721,-0.11014438 0.097155,-0.17108195 -3.66e-5,-0.0392876 -0.00675,-0.065135 -0.025902,-0.0994672 l -0.02585,-0.04638512 0.077925,0.03048823 c 0.095247,0.0372658 0.1315655,0.0606651 0.1555124,0.10019808 0.028813,0.0475641 0.033534,0.0924988 0.016155,0.15375214 -0.018942,0.0667706 -0.050379,0.1109414 -0.1253488,0.17611261 -0.031186,0.0271097 -0.069088,0.0679364 -0.084226,0.0907269 -0.063915,0.0962192 -0.014798,0.22794849 0.1051079,0.28188452 0.052099,0.0234367 0.00315,0.016352 -0.062768,-0.00909 z"
       style="fill:#e6e6e6;fill-opacity:1;stroke-width:0.0588616"
       id="path1-3" /><path
       d="M 0.83696527,0.94201913 C 0.65052683,0.87741496 0.53791472,0.72556771 0.57008163,0.58215117 0.58655674,0.50867887 0.61536954,0.46332516 0.70250694,0.37369064 0.8099641,0.26314931 0.82510608,0.1905222 0.76136712,0.09136084 l -0.0280534,-0.043644 0.0880317,0.03306412 c 0.12421018,0.0466528 0.14623499,0.05920729 0.17294763,0.09857656 0.0493793,0.072777 0.0419477,0.17819427 -0.0186277,0.26428029 -0.0158628,0.0225404 -0.0625785,0.0704892 -0.10381196,0.10655415 -0.0968205,0.0846811 -0.12053803,0.12320124 -0.12111776,0.19671638 -6.5598e-4,0.0848535 0.0556567,0.16241774 0.1466444,0.20193777 0.0513621,0.0223091 0.0102729,0.0176653 -0.0604143,-0.00683 z"
       style="fill:#e6e6e6;fill-opacity:1;stroke-width:0.0647468"
       id="path1-6" /></g></svg>
