<?xml version="1.0" encoding="UTF-8" standalone="no"?>
<svg
   width="16"
   height="16"
   version="1.1"
   id="svg1"
   sodipodi:docname="hmasset_mesh.svg"
   inkscape:version="1.4 (e7c3feb100, 2024-10-09)"
   xmlns:inkscape="http://www.inkscape.org/namespaces/inkscape"
   xmlns:sodipodi="http://sodipodi.sourceforge.net/DTD/sodipodi-0.dtd"
   xmlns="http://www.w3.org/2000/svg"
   xmlns:svg="http://www.w3.org/2000/svg">
  <defs
     id="defs1" />
  <sodipodi:namedview
     id="namedview1"
     pagecolor="#ffffff"
     bordercolor="#000000"
     borderopacity="0.25"
     inkscape:showpageshadow="2"
     inkscape:pageopacity="0.0"
     inkscape:pagecheckerboard="0"
     inkscape:deskcolor="#d1d1d1"
     inkscape:zoom="26.96875"
     inkscape:cx="3.7079954"
     inkscape:cy="10.326767"
     inkscape:window-width="1920"
     inkscape:window-height="1092"
     inkscape:window-x="1920"
     inkscape:window-y="0"
     inkscape:window-maximized="1"
     inkscape:current-layer="svg1" />
  <path
     fill="#fc7f7f"
     d="M 5.5731836,3.2888428 A 1.5183884,1.5395573 0 1 0 3.5005835,5.390338 v 5.035124 a 1.5183884,1.5395573 0 1 0 2.0726001,2.100725 h 4.9658884 a 1.5183884,1.5395573 0 1 0 2.071841,-2.101496 V 5.3895684 A 1.5183884,1.5395573 0 1 0 10.538315,3.2888428 Z M 6.0917132,4.8284001 H 10.538315 A 1.5183884,1.5395573 0 0 0 11.091766,5.390338 V 9.8981639 L 6.0909541,4.8284001 Z M 5.0182125,5.9168672 10.017506,10.98663 H 5.5709059 A 1.5183884,1.5395573 0 0 0 5.0174534,10.424691 V 5.9168672 Z"
     id="path1"
     style="fill:#ff0000;stroke-width:0.764464;fill-opacity:1" />
  <ellipse
     style="fill:none;stroke:#ff092c;stroke-width:1.124;stroke-linejoin:bevel;stroke-miterlimit:4.4;stroke-opacity:1;stroke-dasharray:none;stroke-dashoffset:0"
     id="path2"
     cx="8.0278101"
     cy="7.9721899"
     rx="7.5339198"
     ry="7.5153799" />
</svg>
