<?xml version="1.0" encoding="UTF-8" standalone="no"?>
<!-- Created with Inkscape (http://www.inkscape.org/) -->

<svg
   width="12.846462mm"
   height="44.644527mm"
   viewBox="0 0 12.846462 44.644527"
   version="1.1"
   id="svg1"
   inkscape:version="1.3.2 (091e20e, 2023-11-25, custom)"
   xml:space="preserve"
   sodipodi:docname="more_options_icon.svg"
   xmlns:inkscape="http://www.inkscape.org/namespaces/inkscape"
   xmlns:sodipodi="http://sodipodi.sourceforge.net/DTD/sodipodi-0.dtd"
   xmlns="http://www.w3.org/2000/svg"
   xmlns:svg="http://www.w3.org/2000/svg"><sodipodi:namedview
     id="namedview1"
     pagecolor="#505050"
     bordercolor="#eeeeee"
     borderopacity="1"
     inkscape:showpageshadow="0"
     inkscape:pageopacity="0"
     inkscape:pagecheckerboard="0"
     inkscape:deskcolor="#d1d1d1"
     inkscape:document-units="mm"
     inkscape:zoom="1.2133418"
     inkscape:cx="111.26296"
     inkscape:cy="159.889"
     inkscape:current-layer="layer1" /><defs
     id="defs1" /><g
     inkscape:label="Layer 1"
     inkscape:groupmode="layer"
     id="layer1"
     transform="translate(-75.725842,-53.813063)"><path
       style="fill:#ececec"
       d="m 81.283209,98.408741 c -2.277761,-0.493718 -3.968334,-1.729781 -4.970311,-3.634045 -0.781125,-1.484532 -0.78302,-4.10822 -0.004,-5.574298 1.231226,-2.317185 3.383926,-3.648197 5.900378,-3.648197 2.561062,0 4.64736,1.325818 5.723766,3.637385 1.538363,3.303614 0.02148,7.436825 -3.210224,8.747229 -0.958535,0.388671 -2.713075,0.629401 -3.439584,0.471926 z m 0,-15.875 c -2.282753,-0.4948 -3.980667,-1.738738 -4.960294,-3.634045 -0.776856,-1.503002 -0.784058,-4.130616 -0.01528,-5.574298 1.238762,-2.326255 3.392916,-3.652308 5.908585,-3.637205 2.590754,0.01555 4.64098,1.316095 5.716795,3.626392 1.538363,3.303614 0.02148,7.436826 -3.210224,8.74723 -0.958535,0.38867 -2.713075,0.629401 -3.439584,0.471926 z M 80.972694,66.552696 c -3.110555,-0.575375 -5.198755,-3.106145 -5.218227,-6.324174 -0.02207,-3.647567 2.787937,-6.437386 6.461755,-6.415329 2.590754,0.01555 4.64098,1.316095 5.716795,3.626392 2.248512,4.82865 -1.758706,10.075279 -6.960323,9.113111 z"
       id="path1" /></g></svg>
