<?xml version="1.0" encoding="UTF-8" standalone="no"?>
<!-- Uploaded to: SVG Repo, www.svgrepo.com, Generator: SVG Repo Mixer Tools -->

<svg
   version="1.1"
   id="Icons"
   viewBox="0 0 32 32"
   xml:space="preserve"
   sodipodi:docname="mpath_collapse_point_icon.svg"
   inkscape:version="1.3.2 (091e20e, 2023-11-25, custom)"
   xmlns:inkscape="http://www.inkscape.org/namespaces/inkscape"
   xmlns:sodipodi="http://sodipodi.sourceforge.net/DTD/sodipodi-0.dtd"
   xmlns="http://www.w3.org/2000/svg"
   xmlns:svg="http://www.w3.org/2000/svg"><defs
   id="defs6" /><sodipodi:namedview
   id="namedview6"
   pagecolor="#505050"
   bordercolor="#eeeeee"
   borderopacity="1"
   inkscape:showpageshadow="0"
   inkscape:pageopacity="0"
   inkscape:pagecheckerboard="0"
   inkscape:deskcolor="#d1d1d1"
   inkscape:zoom="30.096232"
   inkscape:cx="18.175033"
   inkscape:cy="18.673434"
   inkscape:current-layer="Icons"
   showgrid="false" />
<style
   type="text/css"
   id="style1">
	.st0{fill:none;stroke:#000000;stroke-width:2;stroke-linecap:round;stroke-linejoin:round;stroke-miterlimit:10;}
	.st1{fill:none;stroke:#000000;stroke-width:2;stroke-linecap:round;stroke-linejoin:round;}
	.st2{fill:none;stroke:#000000;stroke-width:2;stroke-linecap:round;stroke-linejoin:round;stroke-dasharray:6,6;}
	.st3{fill:none;stroke:#000000;stroke-width:2;stroke-linecap:round;stroke-linejoin:round;stroke-dasharray:4,4;}
	.st4{fill:none;stroke:#000000;stroke-width:2;stroke-linecap:round;}
	.st5{fill:none;stroke:#000000;stroke-width:2;stroke-linecap:round;stroke-dasharray:3.1081,3.1081;}
	
		.st6{fill:none;stroke:#000000;stroke-width:2;stroke-linecap:round;stroke-linejoin:round;stroke-miterlimit:10;stroke-dasharray:4,3;}
</style>







<path
   style="fill:#e0e0e0;stroke-width:0.212466"
   d="m 7.5369585,29.927915 -1.424445,-1.43811 4.8385825,-5.1001 C 13.612316,20.584651 15.884323,18.289607 16,18.289607 c 0.115677,0 2.387684,2.295044 5.048903,5.100098 l 4.838583,5.1001 -1.424442,1.43738 -1.424447,1.43739 -3.520752,-3.70199 -3.520752,-3.70198 -3.517845,3.70271 -3.5178445,3.70271 z M 10.951096,8.610289 6.1125135,3.510193 l 1.424445,-1.437386 1.424445,-1.437386 3.5207515,3.701985 3.520752,3.701986 3.517845,-3.702708 3.517845,-3.702709 1.424447,1.438109 1.424442,1.438109 -4.838583,5.100096 C 18.387684,11.415342 16.115677,13.710386 16,13.710386 c -0.115677,0 -2.387684,-2.295044 -5.048904,-5.100097 z"
   id="path1" /></svg>
