<?xml version="1.0" encoding="UTF-8" standalone="no"?>
<!-- Uploaded to: SVG Repo, www.svgrepo.com, Generator: SVG Repo Mixer Tools -->

<svg
   width="800px"
   height="800px"
   viewBox="0 0 24 24"
   fill="none"
   version="1.1"
   id="svg1"
   sodipodi:docname="object_icon.svg"
   inkscape:version="1.3.2 (091e20e, 2023-11-25, custom)"
   xmlns:inkscape="http://www.inkscape.org/namespaces/inkscape"
   xmlns:sodipodi="http://sodipodi.sourceforge.net/DTD/sodipodi-0.dtd"
   xmlns="http://www.w3.org/2000/svg"
   xmlns:svg="http://www.w3.org/2000/svg">
  <defs
     id="defs1" />
  <sodipodi:namedview
     id="namedview1"
     pagecolor="#505050"
     bordercolor="#eeeeee"
     borderopacity="1"
     inkscape:showpageshadow="0"
     inkscape:pageopacity="0"
     inkscape:pagecheckerboard="0"
     inkscape:deskcolor="#d1d1d1"
     inkscape:zoom="0.77163028"
     inkscape:cx="334.35702"
     inkscape:cy="471.08053"
     inkscape:current-layer="svg1" />
  <path
     style="fill:#e0e0e0;stroke-width:0.182295"
     d="M 11.678657,23.689908 C 11.535958,23.666219 11.328928,23.606899 11.218589,23.558092 11.108252,23.509283 9.09797,22.365351 6.7512971,21.016018 2.0620301,18.319698 2.1032086,18.347115 1.793719,17.715289 1.6944898,17.512709 1.623685,17.273782 1.5936124,17.040038 1.5318594,16.56006 1.5318594,7.3912795 1.5936124,6.9112995 1.678391,6.2523446 2.0121298,5.7297548 2.5729992,5.3777104 3.4186128,4.846942 11.107943,0.46157943 11.335207,0.38046913 c 0.358459,-0.1279437 0.985353,-0.126979 1.350499,0.00209 0.25659,0.090676 8.134139,4.58935537 8.787934,5.01857277 0.450807,0.2959569 0.726368,0.6689918 0.893582,1.2096672 0.07954,0.2571734 0.08548,0.6304336 0.08548,5.3648879 v 5.088485 l -0.108137,0.343861 c -0.149487,0.475305 -0.457786,0.881547 -0.869733,1.14601 -0.775074,0.497586 -8.595112,4.97964 -8.813237,5.051305 -0.32521,0.10685 -0.670057,0.136529 -0.982934,0.08458 z M 11.19051,17.026061 V 12.47827 L 7.2754596,10.213281 C 5.1221815,8.9675358 3.3424173,7.9410561 3.3204286,7.9322136 c -0.021989,-0.00885 -0.039979,2.0126912 -0.039979,4.4922984 0,4.222073 0.00535,4.514954 0.084406,4.611968 0.073207,0.08984 7.6929934,4.525101 7.7894824,4.534026 0.0199,0.0018 0.03617,-2.043157 0.03617,-4.544445 z m 5.529866,2.348368 c 2.091674,-1.209685 3.851879,-2.252708 3.911566,-2.317829 l 0.108522,-0.11841 v -4.511028 c 0,-2.4810682 -0.01825,-4.5037974 -0.04054,-4.4949533 -0.0223,0.00884 -1.802062,1.0353921 -3.955031,2.2812213 l -3.91449,2.265148 v 4.547637 c 0,2.667163 0.01798,4.547634 0.04346,4.547634 0.02391,0 1.754835,-0.98974 3.846508,-2.199425 z M 15.964386,8.7149978 C 18.113732,7.4787097 19.871517,6.453175 19.870576,6.4360317 19.869665,6.4188932 18.13924,5.4073458 16.025253,4.1881576 12.98635,2.4355467 12.146049,1.9710379 12.011642,1.9694801 11.873509,1.9678723 11.12098,2.3833917 7.9969943,4.1861866 5.8824368,5.4064583 4.1572785,6.4221746 4.1633092,6.4433356 c 0.014051,0.04931 7.7550278,4.5119094 7.8339878,4.5162244 0.03256,0.0018 1.817742,-1.0082732 3.967089,-2.2445622 z"
     id="path1-3" />
</svg>
