<?xml version="1.0" encoding="UTF-8" standalone="no"?>
<!-- Uploaded to: SVG Repo, www.svgrepo.com, Generator: SVG Repo Mixer Tools -->

<svg
   fill="#000000"
   height="800px"
   width="800px"
   version="1.1"
   id="Layer_1"
   viewBox="0 0 512 512"
   xml:space="preserve"
   sodipodi:docname="physics_icon.svg"
   inkscape:version="1.3.2 (091e20e, 2023-11-25, custom)"
   xmlns:inkscape="http://www.inkscape.org/namespaces/inkscape"
   xmlns:sodipodi="http://sodipodi.sourceforge.net/DTD/sodipodi-0.dtd"
   xmlns="http://www.w3.org/2000/svg"
   xmlns:svg="http://www.w3.org/2000/svg"><defs
   id="defs4" /><sodipodi:namedview
   id="namedview4"
   pagecolor="#505050"
   bordercolor="#eeeeee"
   borderopacity="1"
   inkscape:showpageshadow="0"
   inkscape:pageopacity="0"
   inkscape:pagecheckerboard="0"
   inkscape:deskcolor="#d1d1d1"
   inkscape:zoom="1.09125"
   inkscape:cx="400"
   inkscape:cy="400"
   inkscape:current-layer="Layer_1" />
<g
   id="g2"
   style="fill:#e0e0e0">
	<g
   id="g1"
   style="fill:#e0e0e0">
		<path
   d="M256,192c-35.285,0-64,28.715-64,64s28.715,64,64,64s64-28.715,64-64C320,220.715,291.285,192,256,192z M256,294.4    c-21.171,0-38.4-17.229-38.4-38.4s17.229-38.4,38.4-38.4s38.4,17.229,38.4,38.4S277.171,294.4,256,294.4z"
   id="path1"
   style="fill:#e0e0e0" />
	</g>
</g>
<g
   id="g4"
   style="fill:#e0e0e0">
	<g
   id="g3"
   style="fill:#e0e0e0">
		<path
   id="path2"
   style="fill:#e0e0e0"
   d="m 255.15234,3.203125 c -13.92885,0.1564864 -27.66329,4.8495897 -39.26589,12.50918 -15.07043,9.888643 -27.03175,23.803799 -36.76418,38.839839 -7.35411,11.387528 -13.45751,23.558183 -18.75118,36.012309 -14.01873,-1.804148 -28.19659,-2.859534 -42.31054,-2.042969 -16.01596,0.940792 -32.126209,3.894311 -46.771488,10.640625 -12.25546,5.693331 -23.26597,14.257471 -31.015624,25.378911 -7.645823,11.00033 -12.075955,24.33033 -12.63201,37.71794 -0.738624,16.01266 3.073544,31.89008 9.160533,46.60953 6.687421,16.14676 15.935575,31.16462 26.476473,45.07036 0.760053,0.9561 1.027619,2.31343 0.426694,3.41827 -0.692218,1.39614 -1.83573,2.50055 -2.652795,3.82103 -12.718664,17.61255 -23.572205,36.86393 -29.424106,57.88393 -3.667401,13.25088 -5.153417,27.36083 -2.708063,40.93053 2.211429,12.18222 7.622761,23.79102 15.771533,33.14203 8.972137,10.35252 20.821978,17.94781 33.646194,22.62513 13.323026,4.95891 27.539159,7.12942 41.681179,7.81254 12.90083,0.61399 25.79885,-0.32899 38.59616,-1.92583 1.23042,-0.49433 2.41991,0.67685 2.64367,1.82792 7.97416,18.44889 17.82407,36.30226 30.94363,51.60291 10.22405,11.91649 22.63938,22.36778 37.28435,28.40703 12.56968,5.16765 26.62778,6.71224 39.9389,3.97464 12.969,-2.60985 25.03735,-9.0011 35.18866,-17.42159 13.93878,-11.42012 24.83596,-26.1352 33.79442,-41.68827 4.97944,-8.68619 9.29017,-17.72776 13.22591,-26.92139 14.30983,1.83002 28.78759,2.91941 43.19128,1.98492 12.85645,-0.80806 25.69086,-2.91249 37.85388,-7.29806 10.85466,-3.87276 21.09347,-9.7201 29.50808,-17.65855 8.39373,-7.83595 14.77315,-17.75862 18.38102,-28.66671 2.55809,-7.62303 3.75583,-15.65272 3.69345,-23.6944 -0.005,-15.25976 -4.01169,-30.31944 -9.91678,-44.29805 -6.75702,-16.01042 -16.04134,-30.84123 -26.4082,-44.76758 -0.90254,-0.69364 -0.39402,-2.03126 0.35816,-2.6259 9.00929,-11.50126 16.75458,-24.00686 23.16201,-37.14097 5.12213,-10.70256 9.18155,-21.91842 11.34972,-33.62598 2.82873,-15.04756 2.22651,-31.04038 -3.63121,-45.32785 -5.23438,-12.95432 -14.46369,-24.22214 -25.99557,-32.03192 -13.01957,-8.954864 -28.48778,-13.919883 -44.05049,-16.196089 -16.24164,-2.461152 -32.82763,-2.259972 -49.14144,-0.472936 -2.78876,0.297044 -5.57353,0.629422 -8.35977,0.948986 C 343.71796,72.033962 334.09944,54.036846 321.14518,38.523678 312.14793,27.722441 301.53022,18.125596 289.0272,11.545298 278.63048,6.1079883 266.90849,3.05256 255.15234,3.203125 Z m 0.8418,19.193359 c 11.94809,0.0056 23.59068,4.554549 33.13074,11.593181 11.11638,8.03952 19.91792,18.826599 27.38829,30.239101 6.10364,9.357878 11.09348,19.375728 15.688,29.544672 -25.87873,5.221854 -51.09863,13.347272 -75.55273,23.265622 -1.63624,0.31841 -3.01007,-0.87724 -4.51269,-1.28554 -23.43168,-9.36691 -47.59347,-16.944757 -72.33497,-21.991801 7.09838,-15.753194 15.37415,-31.182744 26.66207,-44.36177 7.67102,-8.934508 16.71911,-16.965035 27.47767,-21.951816 6.88279,-3.219362 14.44678,-5.008826 22.05362,-5.051649 z M 128.99805,107.40625 c 8.12362,0.0374 16.22895,0.65404 24.31054,1.43945 -8.27383,24.51593 -13.72913,49.93714 -17.25842,75.55641 -0.0985,1.41262 -0.79996,2.83226 -2.07847,3.52231 -19.80457,15.44621 -38.549975,32.2724 -55.264669,51.03456 -0.399704,0.87618 -1.82225,1.35085 -2.417969,0.41407 -4.631659,-6.68296 -9.199725,-13.42377 -13.186438,-20.5182 -7.079353,-12.48326 -12.793015,-25.92818 -15.235779,-40.13158 -1.76172,-10.43893 -1.552086,-21.43074 2.104797,-31.45626 3.573739,-9.88428 10.290649,-18.59995 18.963309,-24.54491 10.357249,-7.33495 22.728823,-11.25428 35.139269,-13.36468 8.23264,-1.36753 16.58393,-1.90142 24.92383,-1.95117 z m 254.0039,0 c 14.83447,0.11071 29.87905,1.6721 43.85497,6.89338 10.32866,3.80648 20.0464,9.86031 27.03332,18.4748 8.11597,9.96023 11.88175,23.06964 11.2854,35.82549 -0.4315,12.97324 -4.39973,25.56092 -9.6721,37.33083 -5.56077,12.31447 -12.85949,23.75871 -20.73596,34.70206 -17.5401,-20.01471 -37.47847,-37.76807 -58.49219,-54.07226 -3.33304,-24.28189 -8.17447,-48.43844 -15.65723,-71.7946 -0.28477,-1.2676 -1.06458,-2.44732 -0.99121,-3.77376 0.21803,-1.6089 1.88008,-2.81699 3.47659,-2.55347 6.61755,-0.58716 13.25246,-1.00419 19.89841,-1.03247 z m -209.92968,4.58398 c 19.79011,3.79933 39.17938,9.47324 58.15429,16.22266 -21.63249,10.43113 -42.76106,21.96875 -62.75774,35.27998 -3.62486,2.3697 -7.24172,4.75156 -10.85944,7.13213 3.64412,-19.89514 8.53466,-39.5803 15.1875,-58.68945 0.0918,0.0182 0.18359,0.0365 0.27539,0.0547 z m 166.2207,0.21289 c 6.62489,19.03842 11.48491,38.65659 15.10742,58.47852 -19.99582,-13.56099 -40.67799,-26.16622 -62.34435,-36.86492 -3.7408,-1.87489 -7.48065,-3.75164 -11.22206,-5.62531 19.0442,-6.76971 38.5053,-12.45743 58.36914,-16.25586 0.0299,0.0892 0.0599,0.17838 0.0899,0.26757 z m -83.15625,25.98243 c 1.70056,0.52057 3.26401,1.40304 4.91199,2.06799 34.0812,15.18114 66.53835,34.04592 96.42785,56.38318 1.1999,1.38051 0.79456,3.31291 1.13818,4.95475 4.07184,37.51666 3.96057,75.49965 -0.47997,112.97689 -0.27529,0.94294 -1.36863,1.21808 -2.01467,1.85409 -30.66412,22.60649 -63.86617,41.77792 -98.80955,56.96817 -0.89457,0.6471 -2.09589,0.43112 -2.96216,-0.14411 -35.22584,-15.35998 -68.68702,-34.73624 -99.55737,-57.61565 -1.44254,-1.34574 -1.12572,-3.48102 -1.40672,-5.24949 -4.04697,-37.18877 -3.94403,-74.8324 0.35635,-111.99298 0.0577,-0.64971 0.0191,-1.48542 0.73779,-1.77909 31.25335,-23.20663 65.17764,-42.82117 100.89851,-58.30852 0.24337,-0.0701 0.50491,-0.16216 0.75977,-0.11523 z m 123.57031,75.72656 c 15.14442,13.01354 29.58003,26.88925 42.62233,42.02712 -0.1598,0.4658 -0.78228,0.9341 -1.1193,1.40106 -12.92285,14.83304 -27.14873,28.48676 -42.12412,41.23002 1.75113,-24.34071 2.32555,-48.82106 0.72577,-73.19474 -0.22619,-3.98978 -0.45332,-7.9795 -0.6789,-11.96932 0.19141,0.16862 0.38281,0.33724 0.57422,0.50586 z m -246.90039,0.33008 c -1.521,23.04707 -2.20457,46.19131 -0.78994,69.26242 0.27632,5.00668 0.5617,10.01285 0.85049,15.01883 C 117.44542,285.42195 102.84637,271.32528 89.617188,256 c 13.226592,-15.31685 27.818472,-29.40604 43.230472,-42.50781 -0.0137,0.25 -0.0273,0.5 -0.041,0.75 z m -55.374999,57.18554 c 0.673224,0.3755 1.094211,1.1676 1.673069,1.69929 16.487535,18.31524 34.63226,35.13188 54.06174,50.30729 1.38264,0.95384 2.84606,2.24522 2.89325,4.06001 3.24171,24.08273 8.30851,47.95166 15.74669,71.07971 0.23319,0.96786 0.74754,1.89532 0.80299,2.88886 -0.1361,1.42707 -1.71734,2.25354 -3.03517,2.04778 -16.99251,1.57535 -34.31475,1.70096 -51.064967,-1.93335 -11.55452,-2.50361 -22.922325,-6.88573 -32.249587,-14.29171 -10.567855,-8.28637 -17.627431,-20.91837 -19.035942,-34.28405 -1.403049,-11.71136 0.722801,-23.57521 4.434311,-34.68071 5.623396,-16.83668 14.960137,-32.13768 25.252455,-46.49791 0.111221,-0.18363 0.263524,-0.46779 0.521161,-0.39521 z m 357.060549,1.47852 c 1.80118,0.14316 2.69715,1.91256 3.61719,3.22266 10.07181,14.4515 18.87759,30.05017 23.74013,47.06985 3.09703,10.889 4.45298,22.48733 2.33053,33.69082 -2.30077,12.26485 -9.28647,23.61099 -19.31676,31.06159 -10.02235,7.67329 -22.22604,11.93719 -34.52734,14.25781 -16.05853,3.01902 -32.54631,2.78498 -48.75252,1.21339 -0.62141,-0.0175 -1.4612,-0.0411 -1.58865,-0.8104 -0.83836,-2.06058 0.29093,-4.17223 0.8734,-6.13368 6.91966,-22.01118 11.68825,-44.65225 14.89456,-67.48074 0.22097,-1.09438 0.2047,-2.27456 0.67779,-3.29515 0.85105,-1.47003 2.51407,-2.14333 3.70448,-3.28541 18.73206,-14.80154 36.32784,-31.03645 52.27297,-48.7998 0.59346,-0.44865 1.32127,-0.74405 2.07422,-0.71094 z m -80.19531,69.13086 c -3.67513,19.65626 -8.51136,39.12519 -15.10157,58.01758 -19.89297,-3.79273 -39.37499,-9.50735 -58.44726,-16.27735 22.38724,-10.75774 44.21347,-22.79351 64.83103,-36.64525 2.95557,-1.94808 5.90974,-3.89829 8.86623,-5.84498 -0.0495,0.25 -0.099,0.5 -0.14843,0.75 z m -196.07813,-0.30078 c 19.43092,13.10782 39.45475,25.40623 60.47326,35.81598 4.15609,2.086 8.31182,4.17271 12.46815,6.25824 -19.0405,6.77654 -38.50371,12.45269 -58.36524,16.2539 -6.65706,-19.1265 -11.55832,-38.83127 -15.20508,-58.74414 0.20964,0.13867 0.41927,0.27735 0.62891,0.41602 z m 97.90039,53.0039 c 24.60052,10.0228 50.01942,18.22352 76.08203,23.48633 -7.06116,15.66635 -15.2768,31.01559 -26.47125,44.14556 -7.65285,8.96227 -16.68656,17.02162 -27.42497,22.06832 -13.04286,6.3641 -28.87619,6.88214 -42.20581,1.06029 -10.78736,-4.48843 -19.97815,-12.11884 -27.74048,-20.74112 -11.64276,-12.97513 -20.22994,-28.34762 -27.45293,-44.12741 -0.36936,-0.80134 -0.74172,-1.60131 -1.10885,-2.40368 26.11295,-5.27313 51.56224,-13.49688 76.20312,-23.53711 l 0.0925,0.0379 z" />
	</g>
</g>
</svg>
