<?xml version="1.0" encoding="UTF-8" standalone="no"?>
<svg
   width="32"
   height="32"
   version="1.1"
   id="svg1"
   sodipodi:docname="scale_icon.svg"
   inkscape:version="1.3.2 (091e20e, 2023-11-25, custom)"
   xmlns:inkscape="http://www.inkscape.org/namespaces/inkscape"
   xmlns:sodipodi="http://sodipodi.sourceforge.net/DTD/sodipodi-0.dtd"
   xmlns="http://www.w3.org/2000/svg"
   xmlns:svg="http://www.w3.org/2000/svg">
  <defs
     id="defs1" />
  <sodipodi:namedview
     id="namedview1"
     pagecolor="#505050"
     bordercolor="#eeeeee"
     borderopacity="1"
     inkscape:showpageshadow="0"
     inkscape:pageopacity="0"
     inkscape:pagecheckerboard="0"
     inkscape:deskcolor="#d1d1d1"
     inkscape:zoom="9.6453784"
     inkscape:cx="4.6654468"
     inkscape:cy="13.737149"
     inkscape:current-layer="svg1" />
  <g
     fill="#e0e0e0"
     id="g1"
     transform="matrix(2.147848,0,0,2.147848,-1.147848,-1.147848)">
    <circle
       cx="8"
       cy="8"
       r="2"
       id="circle1" />
    <path
       d="m 9,1 a 1,1 0 0 0 0,2 h 2.586 L 10.293,4.293 11.707,5.707 13,4.414 V 7 a 1,1 0 0 0 2,0 V 2 A 1,1 0 0 0 14,1 Z M 3,9 A 1,1 0 0 0 1,9 v 5 a 1,1 0 0 0 1,1 H 7 A 1,1 0 0 0 7,13 H 4.414 L 5.707,11.707 4.293,10.293 3,11.586 Z"
       id="path1" />
  </g>
</svg>
