<?xml version="1.0" encoding="UTF-8" standalone="no"?>
<!-- Uploaded to: SVG Repo, www.svgrepo.com, Generator: SVG Repo Mixer Tools -->

<svg
   fill="#000000"
   height="800px"
   width="800px"
   version="1.1"
   id="Capa_1"
   viewBox="0 0 488.4 488.4"
   xml:space="preserve"
   sodipodi:docname="search_icon.svg"
   inkscape:version="1.3.2 (091e20e, 2023-11-25, custom)"
   xmlns:inkscape="http://www.inkscape.org/namespaces/inkscape"
   xmlns:sodipodi="http://sodipodi.sourceforge.net/DTD/sodipodi-0.dtd"
   xmlns="http://www.w3.org/2000/svg"
   xmlns:svg="http://www.w3.org/2000/svg"><defs
   id="defs2"><inkscape:path-effect
     effect="fill_between_many"
     method="originald"
     linkedpaths="#g2,0,1|"
     id="path-effect2" /></defs><sodipodi:namedview
   id="namedview2"
   pagecolor="#505050"
   bordercolor="#eeeeee"
   borderopacity="1"
   inkscape:showpageshadow="0"
   inkscape:pageopacity="0"
   inkscape:pagecheckerboard="0"
   inkscape:deskcolor="#d1d1d1"
   inkscape:zoom="0.77163028"
   inkscape:cx="354.44436"
   inkscape:cy="524.21478"
   inkscape:current-layer="Capa_1" />
<path
   inkscape:original-d="M 0,0"
   inkscape:path-effect="#path-effect2"
   d="M 0,0"
   id="path2" /><g
   id="g2"
   style="fill:#e0e0e0"
   transform="matrix(0.6287033,0,0,0.6287033,97.122137,97.333952)">
	<g
   id="g1"
   style="fill:#e0e0e0">
		<path
   d="m 0,203.25 c 0,112.1 91.2,187.327 203.2,187.327 51.6,0 52.0709,0.79027 118.827,-36.548 L 455.19,493.297 c 2.34563,2.45317 5.5,3.6 8.7,3.6 3.2,0 18.51,-9.747 20.91,-12.147 4.8,-4.8 14.568,-22.268 9.768,-27.068 L 358.863,318.414 C 385.91591,279.34927 392.969,251.287 392.969,199.587 392.969,87.487 315.2,0.05 203.2,0.05 91.2,0.05 0,91.15 0,203.25 Z m 342.22379,-1.95808 c 0,88.47796 -52.50391,140.98187 -140.98187,140.98187 -88.47795,0 -146.862409,-52.50391 -153.191865,-140.98187 C 41.736733,113.0395 102.99597,40.774055 191.47392,40.774055 c 88.47796,0 150.74987,71.950095 150.74987,160.517865 z"
   id="path1"
   style="fill:#e0e0e0"
   sodipodi:nodetypes="sscsssccssssssss" />
	</g>
</g>
</svg>
