<?xml version="1.0" encoding="UTF-8" standalone="no"?>
<!-- Uploaded to: SVG Repo, www.svgrepo.com, Generator: SVG Repo Mixer Tools -->

<svg
   fill="#000000"
   height="64"
   width="64"
   version="1.1"
   id="Capa_1"
   viewBox="0 0 4.32 4.32"
   xml:space="preserve"
   sodipodi:docname="settings_icon.svg"
   inkscape:version="1.3.2 (091e20e, 2023-11-25, custom)"
   xmlns:inkscape="http://www.inkscape.org/namespaces/inkscape"
   xmlns:sodipodi="http://sodipodi.sourceforge.net/DTD/sodipodi-0.dtd"
   xmlns="http://www.w3.org/2000/svg"
   xmlns:svg="http://www.w3.org/2000/svg"><defs
   id="defs2" /><sodipodi:namedview
   id="namedview2"
   pagecolor="#505050"
   bordercolor="#eeeeee"
   borderopacity="1"
   inkscape:showpageshadow="0"
   inkscape:pageopacity="0"
   inkscape:pagecheckerboard="0"
   inkscape:deskcolor="#d1d1d1"
   inkscape:zoom="19.261589"
   inkscape:cx="33.745918"
   inkscape:cy="31.279871"
   inkscape:current-layer="Capa_1" />

<path
   id="path4"
   style="fill:#ececec;stroke-width:0.0440965"
   d="M 2.8690137 0.24020508 C 2.7741193 0.2329157 2.6801328 0.27381096 2.6207666 0.35411133 C 2.6110284 0.36738502 2.5642002 0.4467357 2.5005322 0.55792969 C 2.4172686 0.70328283 2.3930172 0.74405966 2.3800342 0.75990234 C 2.3402968 0.8084686 2.2923932 0.83879633 2.2305322 0.85482422 C 2.1688543 0.8708087 2.1173657 0.86915969 2.0565088 0.84928711 C 2.0221018 0.83804352 1.9898747 0.81975646 1.9625098 0.79562988 C 1.9315558 0.76834011 1.9185218 0.75164214 1.8885498 0.70136719 C 1.8676668 0.66633435 1.8281392 0.59835154 1.8151172 0.57506836 C 1.8099912 0.56589967 1.8037944 0.55531872 1.8012744 0.55146973 C 1.7976074 0.54595063 1.7764812 0.50992913 1.7596143 0.48041016 C 1.7238003 0.41770511 1.6901263 0.36169494 1.6872363 0.36004395 C 1.6859163 0.35929105 1.6822125 0.35468374 1.6790625 0.34976074 C 1.6662675 0.32995726 1.6324747 0.30129207 1.6000928 0.28278809 C 1.5525888 0.25564181 1.5074603 0.2440927 1.4509863 0.24455566 C 1.4219192 0.24479426 1.3639736 0.25821686 1.3390576 0.27052734 C 1.3248856 0.27752854 1.2595863 0.314484 1.2396533 0.32682129 C 1.2341363 0.33026629 1.2268593 0.33471615 1.2235693 0.33657715 C 1.2202533 0.33844835 1.2094152 0.34460609 1.1995752 0.35028809 C 1.1897312 0.35596988 1.1789411 0.36217703 1.1755811 0.36399902 C 1.1722161 0.36583902 1.1663793 0.36938718 1.1625293 0.37190918 C 1.1565283 0.37582608 1.1050447 0.40602134 1.0914697 0.41356934 C 1.0889597 0.41496633 1.0789694 0.42076926 1.0691895 0.42648926 C 1.0594397 0.43222435 1.0266169 0.45126691 0.99628418 0.46880859 C 0.96595521 0.48634328 0.93495298 0.50487641 0.92733398 0.50994141 C 0.86655599 0.55057711 0.8206445 0.6212086 0.80709961 0.69490723 C 0.80522261 0.70514722 0.80335778 0.72798038 0.8030127 0.74566406 C 0.8021885 0.78795304 0.81753263 0.84704848 0.83900391 0.88461914 C 0.8469992 0.89861133 0.8550066 0.91280093 0.85693359 0.91612793 C 0.85882359 0.91949013 0.86316562 0.92675076 0.86655762 0.93234375 C 0.86997151 0.93791494 0.88712372 0.96727327 0.9046582 0.99760254 C 0.92219729 1.0279244 0.94125954 1.0607278 0.94697754 1.0705078 C 0.95270283 1.0802768 0.9586123 1.0902881 0.9600293 1.0927881 C 0.96854909 1.1081051 0.99733974 1.1572252 0.99905273 1.1593652 C 1.0001735 1.1607542 1.0084916 1.1751284 1.0176416 1.1914014 C 1.0267906 1.2076754 1.0347958 1.2213553 1.0354395 1.2217236 C 1.0395734 1.2240896 1.0628974 1.2812225 1.0676074 1.3005615 C 1.0732774 1.3238235 1.0773231 1.3667856 1.0759131 1.3888916 C 1.0703322 1.4762626 1.0182883 1.5670967 0.94579102 1.6161768 C 0.92744563 1.6286037 0.88842481 1.6469918 0.86550293 1.6538818 C 0.84644225 1.6596148 0.78542076 1.6683907 0.78125977 1.6660107 C 0.78061537 1.665642 0.76472425 1.6656532 0.74605957 1.6660107 C 0.72739899 1.6663763 0.71081267 1.6665548 0.70901367 1.6662744 C 0.70633397 1.6658817 0.64927159 1.6658575 0.63175781 1.6662744 C 0.62888592 1.666342 0.61737509 1.6663886 0.6060498 1.6664063 C 0.59473772 1.6664015 0.55684561 1.666687 0.52180664 1.6669336 C 0.48677448 1.667184 0.45267381 1.6671558 0.44613281 1.6670654 C 0.43959992 1.6669449 0.43112427 1.6669098 0.42728027 1.6669336 L 0.39102539 1.6674609 C 0.34775361 1.6679879 0.28903263 1.6847369 0.25299316 1.7068799 C 0.23791558 1.7161339 0.219231 1.7292156 0.21133301 1.7360156 C 0.15465656 1.785038 0.11695972 1.8605139 0.11271973 1.9335059 C 0.11219384 1.9426309 0.11208089 1.978766 0.11232422 2.0137939 C 0.11256756 2.0488219 0.11269719 2.0867101 0.11271973 2.0980371 C 0.112735 2.1093611 0.11280325 2.1208751 0.11285156 2.1237451 C 0.11322322 2.1392731 0.11331302 2.1990226 0.1129834 2.2061426 C 0.11276292 2.2107326 0.11258837 2.2176156 0.11271973 2.2214355 C 0.11282685 2.2252655 0.11302586 2.2377561 0.11311523 2.2491211 C 0.11321097 2.2604911 0.11331526 2.2728948 0.11337891 2.2766748 C 0.11341912 2.2804668 0.1134033 2.2890274 0.11324707 2.2955273 C 0.11270807 2.3189667 0.11381694 2.3939323 0.11496094 2.4096973 C 0.11697554 2.4374136 0.13485081 2.4942026 0.14937012 2.5193848 C 0.17758259 2.5683062 0.21027305 2.6013439 0.25773926 2.6285449 C 0.29010303 2.6470819 0.33200935 2.6616904 0.35556152 2.6626904 C 0.36139212 2.6629204 0.36727028 2.6637678 0.36861328 2.6645361 C 0.37147183 2.6661673 0.43681213 2.6668826 0.50901855 2.6659863 C 0.54301742 2.6655639 0.58479202 2.6654513 0.59141602 2.6658545 C 0.59598841 2.6661009 0.6083395 2.6660803 0.61883789 2.6658545 C 0.6830057 2.6644845 0.79383826 2.6649355 0.81382324 2.6666455 C 0.87615499 2.6719665 0.93329432 2.6958056 0.97756348 2.7349365 C 1.025533 2.77734 1.0530368 2.8210592 1.0705078 2.8823291 C 1.0880378 2.9437847 1.0860465 3.000388 1.0643115 3.0592529 C 1.0572344 3.0784719 1.034481 3.120027 0.95132813 3.2654443 C 0.84313551 3.4546496 0.82987067 3.4803318 0.82107422 3.5184375 C 0.81484906 3.5454007 0.81186445 3.5943654 0.8151416 3.6162598 C 0.82738642 3.6980834 0.863374 3.760909 0.92430176 3.8071582 C 0.95538431 3.8307274 1.3146288 4.0376846 1.3568555 4.0563281 C 1.4791698 4.1102514 1.619947 4.0730877 1.6991016 3.9660205 C 1.7088398 3.9527468 1.7556684 3.8733965 1.8193359 3.7622021 C 1.9025997 3.6168489 1.9269835 3.5760719 1.9399658 3.5602295 C 1.9797034 3.5116629 2.0274755 3.4813352 2.0893359 3.4653076 C 2.1510149 3.4493224 2.202496 3.4509686 2.2633594 3.4708447 C 2.2977659 3.4820891 2.3299933 3.5005072 2.3573584 3.5246338 C 2.3883134 3.551924 2.4013466 3.5684897 2.4313184 3.6187646 C 2.4521996 3.6537971 2.4917268 3.7217878 2.504751 3.7450635 C 2.509877 3.7542305 2.5162056 3.7648121 2.5187256 3.7686621 C 2.5223846 3.7741761 2.5433909 3.8101957 2.5602539 3.8397217 C 2.5960679 3.902427 2.6297418 3.9584379 2.6326318 3.9600879 C 2.6339518 3.9608389 2.6376557 3.9654511 2.6408057 3.9703711 C 2.6535977 3.9901771 2.6875253 4.0188398 2.7199072 4.0373438 C 2.7674123 4.0644907 2.8124079 4.0760388 2.8688818 4.0755762 C 2.8979478 4.0753382 2.9560264 4.0619155 2.9809424 4.0496045 C 2.9960204 4.0421565 3.062777 4.0041337 3.080083 3.9931787 C 3.085561 3.9897187 3.0921468 3.9858475 3.0947168 3.9844775 C 3.1075418 3.9777925 3.1571029 3.9493206 3.1605029 3.9466406 C 3.1636889 3.9441696 3.2107613 3.9164425 3.2285303 3.9065625 C 3.2310403 3.9051665 3.2410406 3.8993626 3.2508105 3.8936426 C 3.2605605 3.8879076 3.2933899 3.8688682 3.3237158 3.8513232 C 3.3540448 3.8337893 3.385046 3.8152504 3.392666 3.8101904 C 3.4534443 3.7695548 3.4993554 3.6989235 3.5129004 3.6252246 C 3.5147804 3.6149856 3.5165079 3.5921498 3.5168555 3.5744678 C 3.5176795 3.532179 3.5024681 3.4730837 3.4809961 3.4355127 C 3.4730041 3.4215207 3.4648646 3.4073339 3.4629346 3.4040039 C 3.4610446 3.4006429 3.4567005 3.3933781 3.4533105 3.3877881 C 3.4498966 3.3822171 3.4327509 3.3528623 3.41521 3.3225293 C 3.397671 3.2922073 3.3786106 3.259404 3.3728906 3.249624 C 3.3671636 3.239855 3.3613807 3.2298437 3.3599707 3.2273438 C 3.3514507 3.2120268 3.3226573 3.1629066 3.3209473 3.1607666 C 3.3198263 3.1593776 3.3113766 3.1450035 3.3022266 3.1287305 C 3.2930886 3.1124605 3.285073 3.0987768 3.2844287 3.0984082 C 3.2802937 3.0960422 3.2569707 3.0389093 3.2522607 3.0195703 C 3.2465907 2.9963083 3.2425351 2.9533452 3.2439551 2.9312402 C 3.2495356 2.8438689 3.3015792 2.753036 3.3740771 2.7039551 C 3.3924221 2.6915281 3.4314433 2.67314 3.4543652 2.66625 C 3.4734252 2.660518 3.5345802 2.6517411 3.5387402 2.6541211 C 3.5393842 2.6544897 3.5551506 2.6544823 3.5738086 2.6541211 C 3.5924686 2.6537556 3.6091863 2.6535769 3.6109863 2.6538574 C 3.6136623 2.6542571 3.6705964 2.6542743 3.6881104 2.6538574 C 3.6909823 2.6537897 3.7026212 2.6537524 3.7139502 2.6537256 C 3.7252622 2.6537299 3.7631544 2.6534447 3.7981934 2.6531982 C 3.8332253 2.6529478 3.8671954 2.652977 3.8737354 2.6530664 C 3.8802683 2.6531869 3.8887379 2.6532195 3.8925879 2.6531982 C 3.8964279 2.6531499 3.9127378 2.6528686 3.9288428 2.6526709 C 3.9721152 2.6521459 4.030829 2.6353909 4.066875 2.613252 C 4.081952 2.603998 4.100767 2.5909062 4.108667 2.5841162 C 4.1653429 2.535094 4.2029084 2.4596179 4.2071484 2.386626 C 4.2076745 2.377501 4.2079263 2.3413699 4.2076758 2.3063379 C 4.2074332 2.2713099 4.2072985 2.2334187 4.2072803 2.2220947 C 4.2072661 2.2107707 4.2071926 2.1992667 4.2071484 2.1963867 C 4.2066621 2.1760627 4.2066511 2.121407 4.2071484 2.117417 C 4.2077035 2.113129 4.2072228 2.0560553 4.2064893 2.0416113 C 4.2063478 2.0386973 4.2064015 2.0310645 4.2066211 2.0246045 C 4.2072911 2.0041313 4.2061272 1.9272066 4.2049072 1.9104346 C 4.2028932 1.8827173 4.1851489 1.825929 4.1706299 1.8007471 C 4.1424175 1.7518262 4.1095989 1.7187859 4.0621289 1.6915869 C 4.0297659 1.6730509 3.9878596 1.6584414 3.9643066 1.6574414 C 3.9584796 1.6572214 3.9526049 1.6563655 3.9512549 1.6555957 C 3.948397 1.6539648 3.8830555 1.6532497 3.8108496 1.6541455 C 3.7768576 1.6545717 3.7350721 1.6546814 3.7284521 1.6542773 C 3.7238802 1.6540308 3.7116621 1.6540489 3.7011621 1.6542773 C 3.6369942 1.655647 3.5260299 1.6551963 3.5060449 1.6534863 C 3.4437131 1.6481653 3.3867055 1.6243263 3.3424365 1.5851953 C 3.2944676 1.542793 3.2668303 1.4990727 3.2493604 1.4378027 C 3.2318304 1.3763472 3.2338217 1.3197438 3.2555566 1.2608789 C 3.2626345 1.2416594 3.28552 1.2001053 3.3686719 1.0546875 C 3.4768646 0.86548138 3.489994 0.8397999 3.4987939 0.80169434 C 3.5050212 0.77473116 3.5080066 0.72576645 3.5047266 0.70387207 C 3.4920705 0.61932303 3.453371 0.55414743 3.3877881 0.50690918 C 3.3541271 0.48265952 3.0009777 0.28053849 2.9630127 0.26380371 C 2.9324342 0.25032272 2.9006451 0.24263487 2.8690137 0.24020508 z M 2.16 1.2541553 A 0.90588319 0.90588319 0 0 1 3.0658447 2.16 A 0.90588319 0.90588319 0 0 1 2.16 3.0658447 A 0.90588319 0.90588319 0 0 1 1.2541553 2.16 A 0.90588319 0.90588319 0 0 1 2.16 1.2541553 z " /></svg>
