<?xml version="1.0" encoding="UTF-8" standalone="no"?>
<!-- Uploaded to: SVG Repo, www.svgrepo.com, Generator: SVG Repo Mixer Tools -->

<svg
   fill="#000000"
   height="64"
   width="64"
   version="1.1"
   id="Capa_1"
   viewBox="0 0 4.32 4.32"
   xml:space="preserve"
   sodipodi:docname="settings_icon.svg"
   inkscape:version="1.3.2 (091e20e, 2023-11-25, custom)"
   xmlns:inkscape="http://www.inkscape.org/namespaces/inkscape"
   xmlns:sodipodi="http://sodipodi.sourceforge.net/DTD/sodipodi-0.dtd"
   xmlns="http://www.w3.org/2000/svg"
   xmlns:svg="http://www.w3.org/2000/svg"><defs
   id="defs2" /><sodipodi:namedview
   id="namedview2"
   pagecolor="#505050"
   bordercolor="#eeeeee"
   borderopacity="1"
   inkscape:showpageshadow="0"
   inkscape:pageopacity="0"
   inkscape:pagecheckerboard="0"
   inkscape:deskcolor="#d1d1d1"
   inkscape:zoom="19.261589"
   inkscape:cx="33.797835"
   inkscape:cy="31.305828"
   inkscape:current-layer="Capa_1" />

<path
   id="path4"
   style="fill:#ececec;stroke-width:0.0323096"
   d="m 2.6803541,0.75556498 c -0.069642,-0.005332 -0.1386184,0.0245832 -0.1821867,0.0833238 -0.00715,0.00971 -0.041513,0.0677559 -0.08824,0.14909567 C 2.3488204,1.0943121 2.3310234,1.1241409 2.3214944,1.13573 c -0.029163,0.035527 -0.064319,0.057712 -0.109719,0.069437 -0.045265,0.011693 -0.083051,0.010486 -0.1277145,-0.00405 -0.02525,-0.00822 -0.048903,-0.021602 -0.068985,-0.039251 -0.022717,-0.019963 -0.032283,-0.032178 -0.054279,-0.068954 -0.015325,-0.025627 -0.044335,-0.075357 -0.053892,-0.092389 -0.00376,-0.006707 -0.00831,-0.0144472 -0.01016,-0.0172626 -0.00269,-0.004037 -0.018195,-0.0303875 -0.030574,-0.0519809 -0.026283,-0.0458696 -0.050996,-0.0868417 -0.053118,-0.0880494 -9.705e-4,-5.5075e-4 -0.00368,-0.003922 -0.006,-0.007523 -0.00939,-0.0144865 -0.034191,-0.0354554 -0.057956,-0.0489913 -0.034863,-0.0198578 -0.067982,-0.0283061 -0.109428,-0.0279675 -0.021332,1.7454e-4 -0.063859,0.009993 -0.082143,0.0189986 -0.010399,0.005121 -0.058323,0.0321548 -0.072953,0.0411798 -0.00405,0.00252 -0.00939,0.005775 -0.011805,0.007137 -0.00243,0.001368 -0.010387,0.005874 -0.017609,0.0100297 -0.00723,0.004156 -0.015142,0.008696 -0.017609,0.0100297 -0.00247,0.001346 -0.00675,0.003942 -0.00958,0.005786 -0.0044,0.002866 -0.042188,0.0249535 -0.05215,0.0304749 -0.00184,0.001022 -0.00917,0.005266 -0.016352,0.009451 -0.00715,0.004196 -0.031244,0.0181251 -0.053505,0.0309571 -0.022258,0.0128268 -0.04501,0.0263841 -0.050602,0.0300892 -0.044605,0.0297256 -0.078299,0.0813933 -0.088239,0.13530482 -0.00138,0.00749 -0.00275,0.024193 -0.003,0.037129 -6.049e-4,0.030935 0.010656,0.074164 0.026414,0.1016474 0.00587,0.010235 0.011744,0.020615 0.013159,0.023049 0.00139,0.00246 0.00457,0.00777 0.00706,0.011862 0.00251,0.00407 0.015093,0.025552 0.027962,0.047738 0.012872,0.022181 0.026861,0.046177 0.031058,0.053331 0.0042,0.00715 0.00854,0.014469 0.00958,0.016298 0.00625,0.011204 0.027382,0.047136 0.028639,0.048702 8.237e-4,0.00102 0.00692,0.011531 0.013642,0.023435 0.00671,0.011904 0.012589,0.021912 0.013062,0.022181 0.00303,0.00173 0.020151,0.043524 0.023607,0.05767 0.00416,0.017016 0.00713,0.048444 0.00609,0.064614 -0.00409,0.063913 -0.042291,0.1303593 -0.095496,0.166262 -0.013464,0.00909 -0.042101,0.022541 -0.058923,0.027581 -0.013988,0.00419 -0.058772,0.010614 -0.061826,0.00887 -4.73e-4,-2.698e-4 -0.012135,-2.615e-4 -0.025833,0 -0.013695,2.674e-4 -0.025867,3.98e-4 -0.027188,1.929e-4 -0.00197,-2.873e-4 -0.043844,-3.05e-4 -0.056698,0 -0.00211,4.94e-5 -0.010556,8.36e-5 -0.018867,9.65e-5 -0.0083,-3.5e-6 -0.0361105,2.054e-4 -0.0618255,3.857e-4 -0.0257099,1.832e-4 -0.0507361,1.626e-4 -0.0555365,9.64e-5 -0.004795,-8.81e-5 -0.0110147,-1.138e-4 -0.0138357,-9.64e-5 L 0.861763,1.7996151 c -0.0317568,3.856e-4 -0.0748517,0.012637 -0.10130082,0.028835 -0.0110647,0.00677 -0.0247778,0.016339 -0.0305741,0.021314 -0.0415944,0.035861 -0.0692599,0.091072 -0.0723716,0.1444665 -3.8595e-4,0.00667 -4.6884e-4,0.033108 -2.9026e-4,0.058732 1.7859e-4,0.025624 2.7371e-4,0.053339 2.9026e-4,0.061625 1.121e-5,0.00828 6.129e-5,0.016706 9.675e-5,0.018805 2.7276e-4,0.01136 3.3866e-4,0.055066 9.676e-5,0.060275 -1.6181e-4,0.00335 -2.8992e-4,0.00839 -1.9351e-4,0.011192 7.861e-5,0.00281 2.2467e-4,0.011938 2.9026e-4,0.020252 7.027e-5,0.00831 1.468e-4,0.017391 1.935e-4,0.020156 2.952e-5,0.00278 1.79e-5,0.00904 -9.674e-5,0.013791 -3.9558e-4,0.017146 4.1822e-4,0.071984 0.001258,0.083517 0.001479,0.020275 0.014597,0.061816 0.0252526,0.080238 0.0207049,0.035787 0.0446963,0.059954 0.0795314,0.079852 0.0237516,0.01356 0.0545062,0.024246 0.071791,0.024978 0.004279,1.682e-4 0.008593,7.881e-4 0.009578,0.00135 0.002098,0.00119 0.0500507,0.00171 0.10304247,0.00106 0.0249515,-3.089e-4 0.0556097,-3.914e-4 0.0604709,-9.64e-5 0.00336,1.802e-4 0.01242,1.651e-4 0.020125,0 0.047092,-9.998e-4 0.1284316,-6.722e-4 0.1430984,5.786e-4 0.045745,0.0039 0.087679,0.021332 0.1201679,0.049955 0.035204,0.031018 0.05539,0.063 0.068212,0.107819 0.012865,0.044955 0.011404,0.086362 -0.00455,0.1294219 -0.00519,0.014059 -0.021892,0.044458 -0.082918,0.1508317 -0.079402,0.138406 -0.089137,0.1571929 -0.095592,0.1850677 -0.00457,0.019724 -0.00676,0.055542 -0.00435,0.071558 0.00899,0.059854 0.035397,0.1058129 0.080112,0.1396445 0.022811,0.017241 0.2864582,0.168633 0.317448,0.182271 0.089766,0.039446 0.1930811,0.01226 0.251172,-0.066061 0.00715,-0.00971 0.041514,-0.067756 0.08824,-0.1490957 0.061106,-0.1063283 0.079002,-0.1361566 0.088529,-0.1477456 0.029163,-0.035528 0.064222,-0.057712 0.1096212,-0.069437 0.045266,-0.011694 0.083047,-0.01049 0.1277147,0.00404 0.02525,0.00822 0.048903,0.021699 0.068985,0.039348 0.022718,0.019963 0.032283,0.032081 0.054279,0.068858 0.015324,0.025626 0.044333,0.075362 0.053892,0.092389 0.00376,0.00671 0.00841,0.014445 0.010251,0.017263 0.00268,0.00403 0.018102,0.030383 0.030477,0.051981 0.026285,0.04587 0.050996,0.086842 0.053118,0.08805 9.706e-4,5.493e-4 0.00368,0.00393 0.006,0.00752 0.00939,0.014488 0.034286,0.035456 0.058052,0.048991 0.034864,0.019858 0.067885,0.028306 0.1093314,0.027967 0.021331,-1.742e-4 0.063955,-0.00999 0.08224,-0.018999 0.011069,-0.00545 0.060058,-0.033262 0.07276,-0.041277 0.00402,-0.00253 0.00885,-0.00537 0.01074,-0.00637 0.00941,-0.00489 0.045785,-0.025718 0.04828,-0.027679 0.00234,-0.0018 0.036884,-0.022091 0.049924,-0.029318 0.00184,-0.00102 0.00918,-0.00527 0.016352,-0.00945 0.00715,-0.00419 0.031249,-0.018122 0.053505,-0.030957 0.022258,-0.012827 0.045009,-0.026387 0.050603,-0.030089 0.044606,-0.029726 0.078299,-0.081393 0.088239,-0.1353048 0.00138,-0.00749 0.00265,-0.024195 0.0029,-0.037128 6.111e-4,-0.030934 -0.010558,-0.074164 -0.026311,-0.1016476 -0.00586,-0.01024 -0.011839,-0.020613 -0.013255,-0.023049 -0.00139,-0.00246 -0.00458,-0.00777 -0.00706,-0.011861 -0.0025,-0.00408 -0.015088,-0.025549 -0.027962,-0.047738 -0.012872,-0.022181 -0.02686,-0.046177 -0.031058,-0.053332 -0.0042,-0.00715 -0.00844,-0.014469 -0.00948,-0.016299 -0.00625,-0.011203 -0.027385,-0.047137 -0.028639,-0.048702 -8.238e-4,-0.00102 -0.00702,-0.011531 -0.013739,-0.023435 -0.00671,-0.011901 -0.012589,-0.021912 -0.013062,-0.022181 -0.00303,-0.00173 -0.020151,-0.043524 -0.023608,-0.05767 -0.00416,-0.017017 -0.00714,-0.048444 -0.00609,-0.064614 0.00409,-0.063913 0.042289,-0.1303587 0.095496,-0.1662619 0.013464,-0.00908 0.042101,-0.022541 0.058923,-0.027581 0.013988,-0.00419 0.05887,-0.010614 0.061922,-0.00887 4.726e-4,2.696e-4 0.012044,2.642e-4 0.025737,0 0.013695,-2.673e-4 0.025963,-3.98e-4 0.027285,-1.929e-4 0.00197,2.924e-4 0.043748,3.051e-4 0.056601,0 0.0021,-4.95e-5 0.010649,-7.68e-5 0.018963,-9.64e-5 0.00831,3.2e-6 0.036111,-2.055e-4 0.061826,-3.858e-4 0.025709,-1.831e-4 0.05064,-1.618e-4 0.05544,-9.64e-5 0.0048,8.81e-5 0.011013,1.12e-4 0.013835,9.64e-5 0.00282,-3.54e-5 0.014788,-2.411e-4 0.026607,-3.857e-4 0.031757,-3.84e-4 0.074847,-0.012641 0.101301,-0.028835 0.011069,-0.00677 0.024873,-0.016346 0.030671,-0.021313 0.041594,-0.035861 0.069164,-0.091072 0.072274,-0.1444665 3.862e-4,-0.00667 5.71e-4,-0.033106 3.871e-4,-0.058732 -1.779e-4,-0.025624 -2.769e-4,-0.053341 -2.902e-4,-0.061625 -1.05e-5,-0.00828 -6.45e-5,-0.0167 -9.69e-5,-0.018806 -3.569e-4,-0.014867 -3.65e-4,-0.054849 0,-0.057768 4.075e-4,-0.00314 5.47e-5,-0.044887 -4.838e-4,-0.055454 -1.037e-4,-0.00213 -6.43e-5,-0.00771 9.69e-5,-0.01244 4.916e-4,-0.014977 -3.626e-4,-0.071248 -0.00126,-0.083517 -0.00148,-0.020276 -0.0145,-0.061817 -0.025156,-0.080238 -0.020706,-0.035786 -0.04479,-0.059955 -0.079629,-0.079852 -0.023751,-0.013559 -0.054505,-0.024246 -0.071791,-0.024978 -0.00427,-1.609e-4 -0.00859,-7.87e-4 -0.00958,-0.00135 -0.00209,-0.00119 -0.050052,-0.00171 -0.1030422,-0.00106 -0.024947,3.118e-4 -0.055612,3.92e-4 -0.060471,9.64e-5 -0.00335,-1.804e-4 -0.012322,-1.671e-4 -0.020028,0 -0.047092,9.999e-4 -0.1285284,6.723e-4 -0.1431952,-5.786e-4 -0.045745,-0.0039 -0.087583,-0.021332 -0.120071,-0.049955 -0.035205,-0.031017 -0.055486,-0.063 -0.068308,-0.1078191 -0.012865,-0.044956 -0.011403,-0.086362 0.00455,-0.1294219 0.00519,-0.01406 0.02199,-0.044458 0.083015,-0.1508317 0.079401,-0.1384067 0.089037,-0.157193 0.095496,-0.1850677 0.00457,-0.019724 0.00676,-0.055542 0.00435,-0.071558 C 3.137611,1.0328945 3.1092098,0.98521773 3.0610791,0.95066236 3.0363754,0.93292343 2.7772016,0.78506937 2.7493393,0.77282766 2.7268985,0.76296671 2.7035677,0.7573424 2.6803541,0.75556498 Z M 2.160014,1.4972823 A 0.66482126,0.6626649 0 0 1 2.824807,2.159919 0.66482126,0.6626649 0 0 1 2.160014,2.8225557 0.66482126,0.6626649 0 0 1 1.495221,2.159919 0.66482126,0.6626649 0 0 1 2.160014,1.4972823 Z" /></svg>
