<?xml version="1.0" encoding="UTF-8" standalone="no"?>
<svg
   width="32"
   height="32"
   version="1.1"
   id="svg2"
   sodipodi:docname="snap_grid_icon.svg"
   viewBox="0 0 16 16"
   inkscape:version="1.3.2 (091e20e, 2023-11-25, custom)"
   xmlns:inkscape="http://www.inkscape.org/namespaces/inkscape"
   xmlns:sodipodi="http://sodipodi.sourceforge.net/DTD/sodipodi-0.dtd"
   xmlns="http://www.w3.org/2000/svg"
   xmlns:svg="http://www.w3.org/2000/svg">
  <defs
     id="defs2" />
  <sodipodi:namedview
     id="namedview2"
     pagecolor="#505050"
     bordercolor="#eeeeee"
     borderopacity="1"
     inkscape:showpageshadow="0"
     inkscape:pageopacity="0"
     inkscape:pagecheckerboard="0"
     inkscape:deskcolor="#d1d1d1"
     inkscape:zoom="6.8203125"
     inkscape:cx="4.6185567"
     inkscape:cy="9.7502864"
     inkscape:current-layer="svg2" />
  <path
     fill="#e0e0e0"
     d="M 2,0 V 2 H 0 V 3 H 2 V 7 H 0 v 1 h 2 v 4 H 0 v 1 h 2 v 2 H 3 V 13 H 6 V 12 H 3 V 8 H 7 L 8,7 V 3 h 4 v 3 h 1 V 3 h 2 V 2 H 13 V 0 H 12 V 2 H 8 V 0 H 7 V 2 H 3 V 0 Z M 3,3 H 7 V 7 H 3 Z m 4,10 v 2 h 2 v -2 z m 6,0 v 2 h 2 v -2 z"
     id="path1" />
  <path
     fill="#e0e0e0"
     fill-opacity="0.8"
     d="m 7,13 h 2 v -2 a 2,2 0 0 1 4,0 v 2 h 2 v -2 a 4,4 0 0 0 -8,0 z"
     id="path2" />
</svg>
