<?xml version="1.0" encoding="UTF-8" standalone="no"?>
<!-- Uploaded to: SVG Repo, www.svgrepo.com, Generator: SVG Repo Mixer Tools -->

<svg
   width="800px"
   height="800px"
   viewBox="0 0 24 24"
   fill="none"
   version="1.1"
   id="svg1"
   sodipodi:docname="tick_icon.svg"
   inkscape:version="1.3.2 (091e20e, 2023-11-25, custom)"
   xml:space="preserve"
   xmlns:inkscape="http://www.inkscape.org/namespaces/inkscape"
   xmlns:sodipodi="http://sodipodi.sourceforge.net/DTD/sodipodi-0.dtd"
   xmlns="http://www.w3.org/2000/svg"
   xmlns:svg="http://www.w3.org/2000/svg"><defs
     id="defs1" /><sodipodi:namedview
     id="namedview1"
     pagecolor="#505050"
     bordercolor="#eeeeee"
     borderopacity="1"
     inkscape:showpageshadow="0"
     inkscape:pageopacity="0"
     inkscape:pagecheckerboard="0"
     inkscape:deskcolor="#d1d1d1"
     inkscape:zoom="0.77163028"
     inkscape:cx="335.65298"
     inkscape:cy="471.08053"
     inkscape:current-layer="svg1" /><path
     style="fill:#e0e0e0;stroke-width:0.113386"
     d="M 5.1820766,18.542534 C 2.4588789,16.31916 0.18110504,14.458986 0.12035764,14.408814 l -0.1104499,-0.09122 0.7066851,-0.862957 C 1.1052697,12.980011 1.4333455,12.59581 1.4456502,12.600858 c 0.012305,0.005 1.8675376,1.514427 4.1227405,3.354178 2.255203,1.83975 4.110401,3.347619 4.122662,3.35082 0.01226,0.0032 2.8167933,-4.018849 6.2322933,-8.93789 3.415499,-4.9190407 6.2235,-8.9478697 6.240001,-8.9529537 0.02846,-0.0088 1.819891,1.220475 1.826744,1.253477 0.0051,0.02477 -13.814354,19.9165477 -13.836705,19.9165457 -0.01102,-2e-6 -2.2481113,-1.819126 -4.9713094,-4.042501 z"
     id="path1" /></svg>
